<?xml version="1.0" encoding="utf-8"?>
<svg id="visual" viewBox="0 0 540 960" width="540" height="960" xmlns="http://www.w3.org/2000/svg" version="1.1" xmlns:bx="https://boxy-svg.com">
  <path d="M0 312L22.5 309.3C45 306.7 90 301.3 135 294.5C180 287.7 225 279.3 270 281.5C315 283.7 360 296.3 405 311.3C450 326.3 495 343.7 517.5 352.3L540 361L540 0L0 0Z" fill="#ff4f4f"/>
  <path d="M0 190L22.5 190.7C45 191.3 90 192.7 135 184.5C180 176.3 225 158.7 270 149.2C315 139.7 360 138.3 405 148.2C450 158 495 179 517.5 189.5L540 200L540 0L0 0Z" fill="#ff2516"/>
  <defs>
    <path id="wave-text-path" d="M 6.023 187.937 C 44.387 191.074 57.625 188.389 83.616 184.958 C 109.607 181.527 142.246 173.209 192.912 170.346 C 243.578 167.483 262.04 172.013 309.963 180.862 C 357.886 189.711 383.028 204.005 424.366 213.517"/>
    <filter id="point-light-filter-0" bx:preset="point-light 1 0.5 0.5 0.5 70 1 0.2 0 #ffffff" primitiveUnits="objectBoundingBox" color-interpolation-filters="sRGB" x="-50%" y="-50%" width="200%" height="200%">
      <feSpecularLighting result="specular-lighting" lighting-color="#ffffff" specularConstant="1" specularExponent="70">
        <fePointLight x="0.5" y="0.5" z="0.5"/>
      </feSpecularLighting>
      <feDiffuseLighting result="diffuse-lighting" lighting-color="#ffffff" diffuseConstant="0.2">
        <fePointLight x="0.5" y="0.5" z="0.5"/>
      </feDiffuseLighting>
      <feMerge result="lighting">
        <feMergeNode in="diffuse-lighting"/>
        <feMergeNode in="specular-lighting"/>
      </feMerge>
      <feComposite in="SourceGraphic" in2="lighting" operator="arithmetic" k1="1" k2="0" k3="0" k4="0"/>
    </filter>
    <path id="path-1" d="M 6.023 187.937 C 96.023 197.937 77.617 179.22 179.662 171.472 C 281.707 163.724 334.366 193.517 424.366 213.517"/>
    <filter id="inner-shadow-filter-0" bx:preset="inner-shadow 1 0 0 40 1 #fff" color-interpolation-filters="sRGB" x="-50%" y="-50%" width="200%" height="200%">
      <feOffset dx="0" dy="0"/>
      <feGaussianBlur stdDeviation="40"/>
      <feComposite operator="out" in="SourceGraphic"/>
      <feComponentTransfer result="choke">
        <feFuncA type="linear" slope="2"/>
      </feComponentTransfer>
      <feFlood flood-color="#fff" result="color"/>
      <feComposite operator="in" in="color" in2="choke" result="shadow"/>
      <feComposite operator="over" in="shadow" in2="SourceGraphic"/>
    </filter>
  </defs>
  <text transform="matrix(1, 0, 0, 1.069612, 34.930992, 98.478317)" style="fill: rgb(255, 255, 255); font-family: Arial, Helvetica, sans-serif; font-size: 60px; font-weight: 700; letter-spacing: 2px; white-space: pre; filter: url(&quot;#inner-shadow-filter-0&quot;);">
    <textPath href="#wave-text-path" startOffset="-7" text-anchor="middle"><tspan>
    </tspan><tspan style="filter: url(&quot;#point-light-filter-0&quot;);">
    
    
    
    
    
    
    
    
    
    </tspan><tspan style="letter-spacing: -1.3px; filter: url(&quot;#point-light-filter-0&quot;);">
    
      Match Movies
    
  </tspan><tspan style="filter: url(&quot;#point-light-filter-0&quot;);">
  
  
  
  
  
  
  
  
  
  </tspan><tspan>
  </tspan></textPath>
  </text>
</svg>