<svg id="visual" viewBox="0 0 540 960" width="540" height="960" xmlns="http://www.w3.org/2000/svg" xmlns:xlink="http://www.w3.org/1999/xlink" version="1.1"><path d="M0 312L22.5 309.3C45 306.7 90 301.3 135 294.5C180 287.7 225 279.3 270 281.5C315 283.7 360 296.3 405 311.3C450 326.3 495 343.7 517.5 352.3L540 361L540 0L517.5 0C495 0 450 0 405 0C360 0 315 0 270 0C225 0 180 0 135 0C90 0 45 0 22.5 0L0 0Z" fill="#ff4f4f"></path><path d="M0 190L22.5 190.7C45 191.3 90 192.7 135 184.5C180 176.3 225 158.7 270 149.2C315 139.7 360 138.3 405 148.2C450 158 495 179 517.5 189.5L540 200L540 0L517.5 0C495 0 450 0 405 0C360 0 315 0 270 0C225 0 180 0 135 0C90 0 45 0 22.5 0L0 0Z" fill="#ff2516"></path></svg>